<svg width="192" height="192" viewBox="0 0 192 192" xmlns="http://www.w3.org/2000/svg">
  <defs>
    <linearGradient id="bg" x1="0" y1="0" x2="192" y2="192" gradientUnits="userSpaceOnUse">
      <stop offset="0%" stop-color="#3bd6db" />
      <stop offset="100%" stop-color="#0c88c1" />
    </linearGradient>
  </defs>
  <rect width="192" height="192" rx="36" fill="url(#bg)" />
  <path d="M28 28h42v14H42v26H28V28zm136 0h28v28h-14V42h-26V28zm28 136v28h-28v-14h26v-26h14zm-136 28h42v-14H42v-26H28v28z" fill="#ffffff" opacity="0.88" />
  <path d="M108 48l22 42h4l-28-48-28 48h4l22-42zm-24 44l-4 22 12-12 12 12-4-22h-16z" fill="#000000" />
  <path d="M96 58l-16 34h32L96 58zm-18 22l8-18 8 18h-16z" fill="#3ef0ff" />
  <path d="M72 100l24 22 24-22v18c0 6-6 10-12 10h-24c-6 0-12-4-12-10v-18z" fill="#000000" />
  <path d="M78 104l18 16 18-16v10c0 3-3 5-6 5h-24c-3 0-6-2-6-5v-10z" fill="#07d9ff" />
</svg>
